<?xml version="1.0" encoding="UTF-8"?>
<svg version="1.1" xmlns="http://www.w3.org/2000/svg" width="500" height="500">
<path d="M0 0 C2.88749932 0.71534793 4.66387234 2.10558423 6.359375 4.546875 C8.29903573 9.36291068 7.76921085 14.70799245 6.16015625 19.53515625 C6.09350249 20.92955289 6.07477426 22.326855 6.09765625 23.72265625 C6.12859375 25.60984375 6.12859375 25.60984375 6.16015625 27.53515625 C6.88976562 27.50035156 7.619375 27.46554688 8.37109375 27.4296875 C25.93627592 26.97429389 43.0564492 31.47788153 59.73046875 36.640625 C76.85770445 41.92455942 93.38242069 43.12006715 111.16015625 41.53515625 C109.7755824 46.91682565 109.04619771 49.60353137 104.16015625 52.53515625 C88.35177634 59.12198121 65.56261692 52.59732043 49.4140625 49.53515625 C48.54644287 49.37128418 47.67882324 49.20741211 46.78491211 49.03857422 C45.03901231 48.70371742 43.29496964 48.35902406 41.55297852 48.00439453 C34.05639399 46.53129954 26.58996638 45.91113298 18.97265625 45.41015625 C17.73451172 45.32378906 16.49636719 45.23742187 15.22070312 45.1484375 C12.20085096 44.9385636 9.1807353 44.73424496 6.16015625 44.53515625 C6.49015625 46.51515625 6.82015625 48.49515625 7.16015625 50.53515625 C1.19341009 51.86109984 -4.7656799 51.62361495 -10.83984375 51.53515625 C-11.96484375 46.78515625 -11.96484375 46.78515625 -10.83984375 44.53515625 C-29.45407002 45.23824988 -47.40939662 47.73528791 -65.71069336 51.05883789 C-67.40080987 51.36512729 -69.0909936 51.67104602 -70.78125 51.9765625 C-71.58225632 52.1215065 -72.38326263 52.2664505 -73.20854187 52.41578674 C-79.06420893 53.45283759 -84.89815295 54.19753148 -90.83984375 54.53515625 C-89.95061193 57.14173611 -89.05360577 59.74523461 -88.15234375 62.34765625 C-87.78592773 63.42563477 -87.78592773 63.42563477 -87.41210938 64.52539062 C-85.97566882 68.65288436 -84.37562748 72.63296363 -82.53515625 76.59765625 C-79.50015429 83.15625491 -76.86822884 89.85693295 -74.23803711 96.58520508 C-73.40992968 98.70325373 -72.57742503 100.81953035 -71.74414062 102.93554688 C-69.05997443 109.76662635 -66.42525622 116.61288096 -63.8671875 123.4921875 C-60.67487268 132.06718911 -57.26488578 140.55098724 -53.83984375 149.03515625 C-50.15275 158.16845335 -46.51326494 167.31024833 -43.07740784 176.54138184 C-40.48037837 183.51811964 -37.81495067 190.46718296 -35.10766602 197.40185547 C-34.5490395 198.83710349 -33.99375738 200.27365725 -33.44165039 201.71142578 C-27.99302307 217.31087596 -27.99302307 217.31087596 -15.83984375 227.53515625 C-15.38609375 226.73078125 -14.93234375 225.92640625 -14.46484375 225.09765625 C-12.83984375 222.53515625 -12.83984375 222.53515625 -10.83984375 221.53515625 C-11.16490906 220.8392337 -11.48997437 220.14331116 -11.82489014 219.42630005 C-12.96439064 216.1803785 -13.08696019 213.71324547 -13.07910156 210.27685547 C-13.07916199 208.97910187 -13.07922241 207.68134827 -13.07928467 206.3442688 C-13.06773128 204.88445598 -13.05560197 203.42464763 -13.04296875 201.96484375 C-13.03631196 200.39444073 -13.02991285 198.8240366 -13.02374268 197.25363159 C-12.93887105 182.11847971 -12.58827158 166.98689143 -12.26171875 151.85546875 C-12.20748991 149.3015762 -12.1533318 146.74768215 -12.09924316 144.19378662 C-12.04409606 141.6057521 -11.98887919 139.01771907 -11.93359375 136.4296875 C-11.90608788 135.13925663 -11.878582 133.84882576 -11.85024261 132.51929092 C-11.70709868 125.86953837 -11.55658076 119.22006545 -11.39257812 112.57080078 C-11.23140662 106.03278841 -11.09175348 99.49451063 -10.96469879 92.9557457 C-10.9130346 90.48763435 -10.85399993 88.01966542 -10.78731537 85.55191422 C-10.69573927 82.13252447 -10.62956878 78.71352197 -10.56933594 75.29345703 C-10.51971207 73.78362244 -10.51971207 73.78362244 -10.46908569 72.24328613 C-10.39628291 66.25268477 -11.23747023 63.48708899 -14.83984375 58.53515625 C-14.58984375 55.66015625 -14.58984375 55.66015625 -13.83984375 53.53515625 C-4.48504839 53.51179773 4.86973666 53.49412303 14.22455502 53.48334408 C18.5702055 53.47816598 22.91583576 53.47116273 27.26147461 53.4597168 C31.46957658 53.4487048 35.67765933 53.44284142 39.88577461 53.44027901 C41.47660181 53.43845724 43.06742818 53.43490162 44.65824699 53.42942619 C52.9269231 53.40214591 61.16298002 53.5092664 69.41992188 53.97998047 C70.1142932 54.01899947 70.80866453 54.05801847 71.52407742 54.09821987 C77.07793011 54.44968942 82.34513754 55.32417514 87.72265625 56.72265625 C88.60195801 56.94405273 89.48125977 57.16544922 90.38720703 57.39355469 C115.04389115 63.80939302 135.34619292 75.08151189 148.82958984 97.38549805 C162.54435788 121.35070083 164.36994354 149.92805705 158.16015625 176.53515625 C155.15013619 187.24517374 150.32553309 197.28709098 144.16015625 206.53515625 C143.50015625 206.53515625 142.84015625 206.53515625 142.16015625 206.53515625 C141.92941406 207.08945312 141.69867188 207.64375 141.4609375 208.21484375 C139.80477224 211.16908448 137.73564863 213.26142328 135.34765625 215.66015625 C134.49558594 216.52898437 133.64351563 217.3978125 132.765625 218.29296875 C130.25116869 220.4568337 128.293189 221.53393573 125.16015625 222.53515625 C125.16015625 223.19515625 125.16015625 223.85515625 125.16015625 224.53515625 C116.36285085 229.1821645 107.99136749 233.54712738 98.16015625 235.53515625 C97.5515979 235.69310669 96.94303955 235.85105713 96.31604004 236.01379395 C87.81346867 238.03701998 79.24229406 237.88800783 70.55859375 237.94921875 C68.86893805 237.96795996 67.17929141 237.9875355 65.48965454 238.00790405 C61.07409039 238.0589197 56.658496 238.09870764 52.24279785 238.13604736 C47.72429105 238.17628022 43.20590672 238.22728394 38.6875 238.27734375 C29.8451385 238.37374037 21.00270735 238.45825951 12.16015625 238.53515625 C12.49015625 239.85515625 12.82015625 241.17515625 13.16015625 242.53515625 C13.78664063 242.65632812 14.413125 242.7775 15.05859375 242.90234375 C16.28449219 243.15371094 16.28449219 243.15371094 17.53515625 243.41015625 C18.75332031 243.65378906 18.75332031 243.65378906 19.99609375 243.90234375 C22.16015625 244.53515625 22.16015625 244.53515625 24.16015625 246.53515625 C24.16015625 247.85515625 24.16015625 249.17515625 24.16015625 250.53515625 C25.13597656 250.57253906 26.11179687 250.60992187 27.1171875 250.6484375 C29.02564453 250.74705078 29.02564453 250.74705078 30.97265625 250.84765625 C32.23722656 250.90566406 33.50179687 250.96367187 34.8046875 251.0234375 C38.33358149 251.5616041 39.00852242 251.89361195 41.16015625 254.53515625 C42.31515625 255.07140625 43.47015625 255.60765625 44.66015625 256.16015625 C48.69455437 258.35685184 49.58150099 261.14798256 50.84765625 265.4140625 C51.16015625 267.53515625 51.16015625 267.53515625 50.16015625 270.53515625 C45.298927 271.79472102 40.51989879 271.67570239 35.53637695 271.66455078 C34.0916954 271.66717926 34.0916954 271.66717926 32.61782837 271.66986084 C29.44051299 271.6742554 26.26325343 271.67135047 23.0859375 271.66796875 C20.87827036 271.66864231 18.67060329 271.66961277 16.4629364 271.67086792 C11.84043673 271.6723415 7.2179564 271.67020058 2.59545898 271.66552734 C-3.33992641 271.65982024 -9.27526669 271.66311741 -15.21065044 271.66909981 C-19.76669152 271.67270601 -24.32272181 271.67156673 -28.8787632 271.66897202 C-31.06811338 271.66830343 -33.25746453 271.66912879 -35.44681358 271.67145157 C-38.4993183 271.67398013 -41.55174888 271.67013503 -44.60424805 271.66455078 C-45.97026405 271.66758713 -45.97026405 271.66758713 -47.36387634 271.67068481 C-53.61131201 271.64942212 -53.61131201 271.64942212 -55.83984375 270.53515625 C-55.80604948 261.83313142 -55.80604948 261.83313142 -53.54296875 258.79296875 C-51.11178148 256.75895564 -48.84214666 255.53592389 -45.83984375 254.53515625 C-45.42089844 254.03371094 -45.00195312 253.53226563 -44.5703125 253.015625 C-41.95232309 250.77585528 -39.53444549 251.01508703 -36.15234375 250.84765625 C-34.97285156 250.78191406 -33.79335937 250.71617187 -32.578125 250.6484375 C-31.22267578 250.59236328 -31.22267578 250.59236328 -29.83984375 250.53515625 C-29.71609375 249.91640625 -29.59234375 249.29765625 -29.46484375 248.66015625 C-28.83984375 246.53515625 -28.83984375 246.53515625 -26.83984375 244.53515625 C-24.82294993 243.73260058 -22.78089003 243.07869136 -20.71484375 242.4140625 C-18.48717369 241.56726779 -18.48717369 241.56726779 -16.83984375 238.53515625 C-33.66984375 238.20515625 -50.49984375 237.87515625 -67.83984375 237.53515625 C-67.83984375 235.22515625 -67.83984375 232.91515625 -67.83984375 230.53515625 C-67.14117187 230.33019531 -66.4425 230.12523437 -65.72265625 229.9140625 C-64.81257813 229.64464844 -63.9025 229.37523437 -62.96484375 229.09765625 C-62.05992187 228.83082031 -61.155 228.56398438 -60.22265625 228.2890625 C-57.85708994 227.60901799 -57.85708994 227.60901799 -55.83984375 226.53515625 C-55.40950504 218.70374184 -56.34994703 212.4455541 -59.02734375 205.09765625 C-59.34324463 204.18894775 -59.65914551 203.28023926 -59.98461914 202.34399414 C-62.08136993 196.39125973 -64.36980585 190.55475693 -66.9921875 184.8125 C-67.83984375 182.53515625 -67.83984375 182.53515625 -67.83984375 178.53515625 C-91.59984375 178.53515625 -115.35984375 178.53515625 -139.83984375 178.53515625 C-140.49984375 181.50515625 -141.15984375 184.47515625 -141.83984375 187.53515625 C-142.61345061 190.04746369 -143.42458294 192.54860136 -144.27734375 195.03515625 C-144.49543701 195.68460205 -144.71353027 196.33404785 -144.93823242 197.00317383 C-145.85214395 199.71648614 -146.79127216 202.41066766 -147.83203125 205.078125 C-150.43122385 211.87315707 -151.16581938 219.55722935 -148.83984375 226.53515625 C-146.3808793 227.53147881 -146.3808793 227.53147881 -143.46484375 228.16015625 C-142.48773438 228.39992188 -141.510625 228.6396875 -140.50390625 228.88671875 C-139.18519531 229.20769531 -139.18519531 229.20769531 -137.83984375 229.53515625 C-136.84984375 229.86515625 -135.85984375 230.19515625 -134.83984375 230.53515625 C-134.83984375 232.84515625 -134.83984375 235.15515625 -134.83984375 237.53515625 C-151.66984375 237.53515625 -168.49984375 237.53515625 -185.83984375 237.53515625 C-185.83984375 235.22515625 -185.83984375 232.91515625 -185.83984375 230.53515625 C-185.2365625 230.2928125 -184.63328125 230.05046875 -184.01171875 229.80078125 C-183.2125 229.465625 -182.41328125 229.13046875 -181.58984375 228.78515625 C-180.8009375 228.4603125 -180.01203125 228.13546875 -179.19921875 227.80078125 C-161.82611224 218.48143272 -153.26825776 177.14565757 -147.21484375 159.484375 C-145.91387475 155.70365361 -144.4502654 152.01055837 -142.921875 148.31640625 C-141.34441634 144.26171106 -139.94739772 140.14717887 -138.52734375 136.03515625 C-136.28258534 129.54115486 -133.93720071 123.108935 -131.40234375 116.72265625 C-128.29129373 108.87120966 -125.50096996 100.92640333 -122.75683594 92.94018555 C-120.8049127 87.27115046 -118.78950518 81.63690857 -116.65234375 76.03515625 C-113.81859843 68.60700354 -111.29486703 61.09575892 -108.83984375 53.53515625 C-109.63777344 52.91640625 -110.43570313 52.29765625 -111.2578125 51.66015625 C-113.74454638 49.61358555 -114.8119552 48.5253775 -115.83984375 45.53515625 C-115.83984375 44.21515625 -115.83984375 42.89515625 -115.83984375 41.53515625 C-114.98342285 41.54562988 -114.12700195 41.55610352 -113.24462891 41.56689453 C-110.02035545 41.60129259 -106.79617657 41.6262074 -103.57177734 41.64501953 C-102.18502699 41.65498228 -100.7982971 41.66855743 -99.41162109 41.68603516 C-91.33023843 41.78522902 -83.70256106 41.56243806 -75.83984375 39.53515625 C-74.75574219 39.28894531 -73.67164063 39.04273438 -72.5546875 38.7890625 C-68.19292034 37.70322173 -63.88984956 36.60287067 -59.65234375 35.09765625 C-43.93905315 29.67928018 -27.41713295 27.08779312 -10.83984375 27.53515625 C-11.01644531 26.58898437 -11.19304687 25.6428125 -11.375 24.66796875 C-11.83984375 21.53515625 -11.83984375 21.53515625 -11.27734375 19.41015625 C-10.60430298 17.48663049 -10.60430298 17.48663049 -11.83984375 15.78515625 C-13.39266713 12.29130364 -12.90376716 9.09331071 -11.83984375 5.53515625 C-8.63826013 0.73278082 -5.55976959 -0.36198834 0 0 Z M6.16015625 63.53515625 C6.06786327 65.4983373 6.04718894 67.46489722 6.05335999 69.43023682 C6.05487564 70.71175125 6.0563913 71.99326569 6.05795288 73.31361389 C6.06468275 74.74716222 6.07149082 76.18071019 6.07836914 77.61425781 C6.08192283 79.11366171 6.08500948 80.61306677 6.08766174 82.11247253 C6.09422849 85.34934109 6.10379824 88.58618239 6.11555672 91.82303619 C6.13380035 96.94083563 6.14343585 102.05862831 6.151474 107.17645264 C6.17566156 121.73241097 6.21147182 136.28832876 6.25610352 150.84423828 C6.28065831 158.87726752 6.29801722 166.91028069 6.3076629 174.94334197 C6.31420749 180.03082945 6.32977098 185.11818497 6.35198033 190.20562696 C6.36371552 193.37325217 6.36707807 196.5408453 6.36807823 199.70849037 C6.37022489 201.17705268 6.37581377 202.64561463 6.38510895 204.11414909 C6.3973134 206.12011147 6.39595981 208.12614264 6.39393616 210.13214111 C6.39707856 211.25450794 6.40022097 212.37687477 6.4034586 213.53325272 C6.15619399 216.58404323 5.45374719 218.77858207 4.16015625 221.53515625 C7.63751651 225.31550248 7.63751651 225.31550248 12.16015625 227.53515625 C15.08545055 226.02818646 16.02617246 224.86641463 17.26537704 221.80263424 C18.17615653 218.47672779 18.41168108 215.75804829 18.41412354 212.31800842 C18.41976318 211.09141006 18.42540283 209.86481171 18.43121338 208.6010437 C18.42732538 207.25494325 18.42322908 205.90884339 18.41894531 204.56274414 C18.42165755 203.13480959 18.42521979 201.70687644 18.42956543 200.27894592 C18.43866486 196.41115092 18.43515507 192.54346291 18.42880726 188.67566609 C18.42373361 184.62170075 18.4284426 180.5677444 18.43157959 176.51377869 C18.43521567 169.70553956 18.43042996 162.89734386 18.42089844 156.08911133 C18.41001894 148.22745469 18.41353722 140.36590184 18.42455125 132.50424773 C18.43363954 125.74567786 18.43490173 118.98713916 18.42967391 112.22856516 C18.42656213 108.19585275 18.42612299 104.16318905 18.43274689 100.13047981 C18.43854202 96.33752419 18.43448395 92.54470178 18.42295837 88.75176048 C18.42032316 87.36306097 18.42105734 85.97435017 18.4254837 84.58565521 C18.96859824 73.33546682 18.96859824 73.33546682 14.34765625 63.59765625 C11.76201905 62.34177533 8.43941023 61.25590227 6.16015625 63.53515625 Z M43.16015625 66.53515625 C43.11347353 86.69282391 43.07818572 106.85048063 43.05653191 127.00819111 C43.04621126 136.36737689 43.03213588 145.72652911 43.00927734 155.08569336 C42.98936758 163.24139003 42.97644555 171.39706241 42.97197926 179.55278271 C42.96936778 183.87275174 42.96321335 188.19265125 42.94869614 192.51259804 C42.93515032 196.57629448 42.9309275 200.63989259 42.93394089 204.70360947 C42.93338938 206.1971954 42.92939407 207.69078452 42.9217453 209.18435097 C42.91183154 211.21954105 42.91537038 213.25478355 42.91964722 215.28999329 C42.91780363 216.43025121 42.91596004 217.57050913 42.91406059 218.74532032 C42.95403778 221.74537411 42.95403778 221.74537411 45.16015625 224.53515625 C61.69891687 230.04807646 86.41702861 226.19917139 101.78515625 218.66015625 C106.78241002 216.15072349 111.05965044 213.35808936 115.16015625 209.53515625 C115.16015625 208.87515625 115.16015625 208.21515625 115.16015625 207.53515625 C115.82015625 207.53515625 116.48015625 207.53515625 117.16015625 207.53515625 C117.16015625 206.87515625 117.16015625 206.21515625 117.16015625 205.53515625 C117.82015625 205.53515625 118.48015625 205.53515625 119.16015625 205.53515625 C119.16015625 204.87515625 119.16015625 204.21515625 119.16015625 203.53515625 C119.82015625 203.53515625 120.48015625 203.53515625 121.16015625 203.53515625 C122.48280025 200.99833109 123.79332986 198.45637974 125.09765625 195.91015625 C125.47083984 195.19730469 125.84402344 194.48445313 126.22851562 193.75 C128.30799613 189.66597523 129.70009946 186.16493415 130.16015625 181.53515625 C129.6496875 181.91027344 129.13921875 182.28539062 128.61328125 182.671875 C114.85312684 192.35765745 101.60101211 194.66229592 85.16015625 192.53515625 C74.07736397 190.31092804 64.30720392 184.13015838 57.2421875 175.2734375 C55.4363987 172.37244105 54.16015625 169.00454559 54.16015625 165.53515625 C55.23265625 165.53515625 56.30515625 165.53515625 57.41015625 165.53515625 C61.4298641 164.9035304 61.4298641 164.9035304 63.34765625 161.28515625 C65.2610364 156.74493216 66.61700831 152.0110177 67.9375 147.26953125 C69.33206738 143.01008584 71.04789573 138.94906064 72.79321289 134.82324219 C75.13290888 129.19526834 77.26370717 123.48903131 79.41015625 117.78515625 C80.12628213 115.88269553 80.84248407 113.98026349 81.55877686 112.0778656 C82.04251284 110.79295331 82.52595263 109.50792948 83.00909424 108.22279358 C84.61597359 103.9556037 86.25532009 99.70201249 87.91015625 95.453125 C88.33264648 94.35774414 88.75513672 93.26236328 89.19042969 92.13378906 C89.98726944 90.06864071 90.79226746 88.00661672 91.60644531 85.94824219 C91.95932617 85.02688477 92.31220703 84.10552734 92.67578125 83.15625 C92.98805664 82.35630615 93.30033203 81.5563623 93.62207031 80.73217773 C94.23517833 78.22883879 94.12618946 76.91214037 93.16015625 74.53515625 C86.24294895 70.20576941 77.79147401 68.9026109 69.84765625 67.72265625 C68.6241748 67.5369104 68.6241748 67.5369104 67.37597656 67.34741211 C61.83364944 66.61671531 56.38339978 66.47372825 50.80395508 66.50512695 C49.69783749 66.50837856 49.69783749 66.50837856 48.56937408 66.51169586 C46.76629326 66.51731038 44.96322219 66.52592601 43.16015625 66.53515625 Z M105.16015625 82.53515625 C107.2957067 90.18434842 110.00267672 97.5244962 112.91015625 104.91015625 C116.30641248 113.63009036 119.56191038 122.37289351 122.60083008 131.22314453 C125.88859779 140.74721026 129.52367104 150.13983449 133.16015625 159.53515625 C133.49015625 159.53515625 133.82015625 159.53515625 134.16015625 159.53515625 C135.06401495 135.56616266 130.58931371 113.67889244 117.16015625 93.53515625 C116.50015625 93.53515625 115.84015625 93.53515625 115.16015625 93.53515625 C114.90363281 92.9525 114.64710938 92.36984375 114.3828125 91.76953125 C113.05229799 89.33804786 111.57572612 87.71780072 109.59765625 85.78515625 C108.97761719 85.1715625 108.35757812 84.55796875 107.71875 83.92578125 C106.38392662 82.42419699 106.38392662 82.42419699 105.16015625 82.53515625 Z M98.16015625 83.53515625 C95.46476063 90.21752833 92.84181782 96.92355593 90.28515625 103.66015625 C89.93710937 104.57539063 89.5890625 105.490625 89.23046875 106.43359375 C87.19345539 111.79573187 85.16963637 117.16264578 83.16015625 122.53515625 C80.80417145 128.83407551 78.42558093 135.12422469 76.03515625 141.41015625 C75.7103125 142.26609375 75.38546875 143.12203125 75.05078125 144.00390625 C73.08135524 149.17565097 71.03908703 154.30686756 68.89892578 159.41064453 C67.99593383 161.63253523 67.99593383 161.63253523 68.16015625 164.53515625 C87.63015625 164.53515625 107.10015625 164.53515625 127.16015625 164.53515625 C128.44107623 162.52234268 128.44107623 162.52234268 127.52685547 160.11181641 C127.1763916 159.10940918 126.82592773 158.10700195 126.46484375 157.07421875 C125.88476562 155.40552734 125.88476562 155.40552734 125.29296875 153.703125 C124.87789063 152.53394531 124.4628125 151.36476563 124.03515625 150.16015625 C123.64328125 149.02964844 123.25140625 147.89914062 122.84765625 146.734375 C120.55575922 140.19572758 118.04741929 133.79818 115.34326172 127.42041016 C113.45614448 122.81827406 111.87415526 118.12175171 110.28515625 113.41015625 C106.84084684 103.34134694 103.1077085 93.41637298 99.16015625 83.53515625 C98.83015625 83.53515625 98.50015625 83.53515625 98.16015625 83.53515625 Z M-105.83984375 85.53515625 C-111.53941815 100.31678584 -111.53941815 100.31678584 -116.90234375 115.22265625 C-118.90225203 120.98418367 -121.03724276 126.67529221 -123.27734375 132.34765625 C-127.4643433 142.95612564 -131.23355219 153.71628158 -134.83984375 164.53515625 C-124.60984375 164.53515625 -114.37984375 164.53515625 -103.83984375 164.53515625 C-103.81724173 154.97310894 -103.79889907 145.41107941 -103.78803158 135.84901142 C-103.78281545 131.40885233 -103.77574085 126.96871247 -103.7644043 122.52856445 C-103.75353031 118.24271137 -103.74755733 113.95687679 -103.74496651 109.67101097 C-103.7431204 108.03677263 -103.73951543 106.40253528 -103.73411369 104.76830482 C-103.72684341 102.4774317 -103.72585534 100.18663478 -103.72631836 97.89575195 C-103.72409775 96.59225296 -103.72187714 95.28875397 -103.71958923 93.945755 C-103.82347474 90.99940598 -104.14950524 88.39222977 -104.83984375 85.53515625 C-105.16984375 85.53515625 -105.49984375 85.53515625 -105.83984375 85.53515625 Z M-96.83984375 104.53515625 C-97.68654778 124.5520501 -97.96207356 144.50304878 -97.83984375 164.53515625 C-89.58984375 164.53515625 -81.33984375 164.53515625 -72.83984375 164.53515625 C-81.10618209 142.49719566 -81.10618209 142.49719566 -89.93334961 120.67919922 C-92.14987074 115.3668932 -94.09973664 110.02242583 -95.83984375 104.53515625 C-96.16984375 104.53515625 -96.49984375 104.53515625 -96.83984375 104.53515625 Z " fill="#F3F3F3" transform="translate(253.83984375,111.46484375)"/>
<path d="M0 0 C0.33 1.32 0.66 2.64 1 4 C2.28595062 3.99555878 3.57190125 3.99111755 4.89682007 3.98654175 C16.9928581 3.94606625 29.08888247 3.91604962 41.18497276 3.89637566 C47.40426828 3.88592121 53.62350929 3.87173179 59.84277344 3.84912109 C65.84035404 3.82745185 71.8378821 3.8154439 77.83549881 3.81024551 C80.12812757 3.80653909 82.42075333 3.79930179 84.71335983 3.78853989 C87.91492771 3.77410364 91.11627612 3.77201875 94.31787109 3.77294922 C95.27380661 3.76575867 96.22974213 3.75856812 97.21464539 3.75115967 C98.51875618 3.75528366 98.51875618 3.75528366 99.84921265 3.75949097 C100.60692648 3.75764738 101.36464031 3.75580379 102.14531517 3.75390434 C104 4 104 4 106 6 C101.13877075 7.25956477 96.35974254 7.14054614 91.3762207 7.12939453 C90.41309967 7.13114685 89.44997864 7.13289917 88.45767212 7.13470459 C85.28035674 7.13909915 82.10309718 7.13619422 78.92578125 7.1328125 C76.71811411 7.13348606 74.51044704 7.13445652 72.30278015 7.13571167 C67.68028048 7.13718525 63.05780015 7.13504433 58.43530273 7.13037109 C52.49991734 7.12466399 46.56457706 7.12796116 40.62919331 7.13394356 C36.07315223 7.13754976 31.51712194 7.13641048 26.96108055 7.13381577 C24.77173037 7.13314718 22.58237922 7.13397254 20.39303017 7.13629532 C17.34052545 7.13882388 14.28809487 7.13497878 11.2355957 7.12939453 C9.8695797 7.13243088 9.8695797 7.13243088 8.47596741 7.13552856 C2.22853174 7.11426587 2.22853174 7.11426587 0 6 C0 4.02 0 2.04 0 0 Z " fill="#C4C4C4" transform="translate(198,376)"/>
<path d="M0 0 C0.33 0.66 0.66 1.32 1 2 C1.66 2 2.32 2 3 2 C3 2.66 3 3.32 3 4 C3.99 4.33 4.98 4.66 6 5 C4.20665102 9.8148703 2.3778461 14.61243834 0.50024414 19.39501953 C-2.82868111 27.87658249 -5.99860952 36.39693605 -9 45 C-9.33 45 -9.66 45 -10 45 C-10 43.35 -10 41.7 -10 40 C-12.97 42.475 -12.97 42.475 -16 45 C-14.06253822 37.24637062 -11.5555608 29.90520217 -8.5625 22.5 C-5.57859413 15.04275126 -2.70038332 7.56513263 0 0 Z " fill="#D6D6D6" transform="translate(345,195)"/>
<path d="M0 0 C0.78375 0.185625 1.5675 0.37125 2.375 0.5625 C4.97089775 1.25962266 4.97089775 1.25962266 7 0 C7.19110352 0.55349121 7.38220703 1.10698242 7.57910156 1.67724609 C8.46692548 4.24402945 9.35795141 6.80968177 10.25 9.375 C10.56775391 10.29007324 10.88550781 11.20514648 11.21289062 12.14794922 C13.12582766 17.61891018 15.12761985 23.0150095 17.46875 28.3203125 C18 30 18 30 17 32 C16.34 31.67 15.68 31.34 15 31 C14.01 32.32 13.02 33.64 12 35 C11.77860352 34.35562988 11.55720703 33.71125977 11.32910156 33.04736328 C10.3052937 30.07235449 9.27766795 27.09867749 8.25 24.125 C7.90195312 23.11179687 7.55390625 22.09859375 7.1953125 21.0546875 C5.19693878 15.28160786 3.0842048 9.59279724 0.72558594 3.95654297 C0 2 0 2 0 0 Z " fill="#D3D3D3" transform="translate(368,236)"/>
<path d="M0 0 C0.33 0.66 0.66 1.32 1 2 C1.66 2 2.32 2 3 2 C3 2.66 3 3.32 3 4 C3.99 4.33 4.98 4.66 6 5 C5.5875 6.093125 5.175 7.18625 4.75 8.3125 C2.79335013 13.52711234 0.89640078 18.76323846 -1 24 C-1.61875 23.505 -2.2375 23.01 -2.875 22.5 C-4.83880904 20.80777227 -4.83880904 20.80777227 -7 21 C-4.96192707 13.8821847 -2.59655258 6.93292719 0 0 Z " fill="#D0D0D0" transform="translate(345,195)"/>
<path d="M0 0 C0.33 1.32 0.66 2.64 1 4 C11.89 4 22.78 4 34 4 C34 4.33 34 4.66 34 5 C33.14535156 5.06058594 32.29070312 5.12117188 31.41015625 5.18359375 C30.30542969 5.26738281 29.20070312 5.35117187 28.0625 5.4375 C26.96035156 5.51871094 25.85820312 5.59992188 24.72265625 5.68359375 C22.08890097 5.70418084 22.08890097 5.70418084 21 7 C19.60825641 7.09862603 18.21163857 7.1307898 16.81640625 7.1328125 C15.97142578 7.13410156 15.12644531 7.13539063 14.25585938 7.13671875 C13.36705078 7.13285156 12.47824219 7.12898438 11.5625 7.125 C10.67755859 7.12886719 9.79261719 7.13273437 8.88085938 7.13671875 C8.03458984 7.13542969 7.18832031 7.13414062 6.31640625 7.1328125 C5.14766968 7.13112061 5.14766968 7.13112061 3.95532227 7.12939453 C2 7 2 7 0 6 C0 4.02 0 2.04 0 0 Z " fill="#ACACAC" transform="translate(198,376)"/>
<path d="M0 0 C0 0.33 0 0.66 0 1 C-5.61 0.67 -11.22 0.34 -17 0 C-17 -0.33 -17 -0.66 -17 -1 C-15.10590022 -1.22354607 -13.2095652 -1.42819951 -11.3125 -1.625 C-9.72888672 -1.79902344 -9.72888672 -1.79902344 -8.11328125 -1.9765625 C-4.86283654 -2.0010326 -2.89769204 -1.40852563 0 0 Z " fill="#808080" transform="translate(292,157)"/>
</svg>
